<mxfile host="app.diagrams.net" modified="2024-03-13T11:53:06.323Z" agent="Mozilla/5.0 (Windows NT 10.0; Win64; x64) AppleWebKit/537.36 (KHTML, like Gecko) Chrome/122.0.0.0 Safari/537.36" etag="rSeH6N8CHyzJSmMBgRhA" version="24.0.5" type="github">
  <diagram name="Page-1" id="i-XF6ekM6DVgxCKhCPuY">
    <mxGraphModel dx="1488" dy="1665" grid="1" gridSize="10" guides="1" tooltips="1" connect="1" arrows="1" fold="1" page="0" pageScale="1" pageWidth="827" pageHeight="1169" math="0" shadow="0">
      <root>
        <mxCell id="0" />
        <mxCell id="1" parent="0" />
        <mxCell id="FZLOpyLxCf-CLv6O1kn6-4" value="barcode" style="ellipse;whiteSpace=wrap;html=1;" vertex="1" parent="1">
          <mxGeometry x="450" y="-210" width="60" height="40" as="geometry" />
        </mxCell>
        <mxCell id="FZLOpyLxCf-CLv6O1kn6-5" value="call_no" style="ellipse;whiteSpace=wrap;html=1;" vertex="1" parent="1">
          <mxGeometry x="520" y="-250" width="60" height="40" as="geometry" />
        </mxCell>
        <mxCell id="FZLOpyLxCf-CLv6O1kn6-6" value="call_no" style="ellipse;whiteSpace=wrap;html=1;" vertex="1" parent="1">
          <mxGeometry x="600" y="-250" width="60" height="40" as="geometry" />
        </mxCell>
        <mxCell id="FZLOpyLxCf-CLv6O1kn6-7" value="call_no" style="ellipse;whiteSpace=wrap;html=1;" vertex="1" parent="1">
          <mxGeometry x="670" y="-210" width="60" height="40" as="geometry" />
        </mxCell>
        <mxCell id="FZLOpyLxCf-CLv6O1kn6-8" value="call_no" style="ellipse;whiteSpace=wrap;html=1;" vertex="1" parent="1">
          <mxGeometry x="680" y="-150" width="60" height="40" as="geometry" />
        </mxCell>
        <mxCell id="FZLOpyLxCf-CLv6O1kn6-10" value="" style="endArrow=none;html=1;rounded=0;" edge="1" parent="1" source="FZLOpyLxCf-CLv6O1kn6-4" target="vefGU2Eb_igaSBjP2mFE-45">
          <mxGeometry width="50" height="50" relative="1" as="geometry">
            <mxPoint x="550" y="-90" as="sourcePoint" />
            <mxPoint x="600" y="-140" as="targetPoint" />
          </mxGeometry>
        </mxCell>
        <mxCell id="FZLOpyLxCf-CLv6O1kn6-11" value="" style="endArrow=none;html=1;rounded=0;" edge="1" parent="1" source="FZLOpyLxCf-CLv6O1kn6-5" target="vefGU2Eb_igaSBjP2mFE-45">
          <mxGeometry width="50" height="50" relative="1" as="geometry">
            <mxPoint x="513" y="-167" as="sourcePoint" />
            <mxPoint x="544" y="-150" as="targetPoint" />
          </mxGeometry>
        </mxCell>
        <mxCell id="FZLOpyLxCf-CLv6O1kn6-12" value="" style="endArrow=none;html=1;rounded=0;" edge="1" parent="1" source="FZLOpyLxCf-CLv6O1kn6-6" target="vefGU2Eb_igaSBjP2mFE-45">
          <mxGeometry width="50" height="50" relative="1" as="geometry">
            <mxPoint x="567" y="-201" as="sourcePoint" />
            <mxPoint x="586" y="-150" as="targetPoint" />
          </mxGeometry>
        </mxCell>
        <mxCell id="FZLOpyLxCf-CLv6O1kn6-13" value="" style="endArrow=none;html=1;rounded=0;" edge="1" parent="1" source="vefGU2Eb_igaSBjP2mFE-45" target="FZLOpyLxCf-CLv6O1kn6-7">
          <mxGeometry width="50" height="50" relative="1" as="geometry">
            <mxPoint x="632" y="-201" as="sourcePoint" />
            <mxPoint x="610" y="-150" as="targetPoint" />
          </mxGeometry>
        </mxCell>
        <mxCell id="FZLOpyLxCf-CLv6O1kn6-14" value="" style="endArrow=none;html=1;rounded=0;" edge="1" parent="1" source="vefGU2Eb_igaSBjP2mFE-45" target="FZLOpyLxCf-CLv6O1kn6-8">
          <mxGeometry width="50" height="50" relative="1" as="geometry">
            <mxPoint x="654" y="-150" as="sourcePoint" />
            <mxPoint x="687" y="-168" as="targetPoint" />
          </mxGeometry>
        </mxCell>
        <mxCell id="FZLOpyLxCf-CLv6O1kn6-40" value="lname" style="ellipse;whiteSpace=wrap;html=1;" vertex="1" parent="1">
          <mxGeometry x="647" y="100" width="60" height="40" as="geometry" />
        </mxCell>
        <mxCell id="FZLOpyLxCf-CLv6O1kn6-43" value="course" style="ellipse;whiteSpace=wrap;html=1;" vertex="1" parent="1">
          <mxGeometry x="640" y="180" width="60" height="40" as="geometry" />
        </mxCell>
        <mxCell id="vefGU2Eb_igaSBjP2mFE-44" value="&lt;b&gt;&lt;font face=&quot;Courier New&quot;&gt;Attendance Record&lt;/font&gt;&lt;/b&gt;" style="rounded=0;whiteSpace=wrap;html=1;container=0;" parent="1" vertex="1">
          <mxGeometry x="470" y="120" width="120" height="60" as="geometry" />
        </mxCell>
        <mxCell id="vefGU2Eb_igaSBjP2mFE-45" value="&lt;font face=&quot;Courier New&quot;&gt;&lt;b&gt;Books&lt;/b&gt;&lt;/font&gt;" style="rounded=0;whiteSpace=wrap;html=1;container=0;" parent="1" vertex="1">
          <mxGeometry x="527" y="-160" width="120" height="60" as="geometry" />
        </mxCell>
        <mxCell id="vefGU2Eb_igaSBjP2mFE-47" value="" style="edgeStyle=entityRelationEdgeStyle;fontSize=12;html=1;endArrow=ERoneToMany;rounded=0;startSize=8;endSize=8;curved=0;exitX=1;exitY=0.5;exitDx=0;exitDy=0;entryX=0;entryY=0.75;entryDx=0;entryDy=0;" parent="1" source="vefGU2Eb_igaSBjP2mFE-51" target="vefGU2Eb_igaSBjP2mFE-44" edge="1">
          <mxGeometry width="100" height="100" relative="1" as="geometry">
            <mxPoint x="240" y="105" as="sourcePoint" />
            <mxPoint x="380" y="200" as="targetPoint" />
            <Array as="points">
              <mxPoint x="430" y="145" />
              <mxPoint x="350" y="115" />
              <mxPoint x="380" y="205" />
              <mxPoint x="440" y="75" />
              <mxPoint x="420" y="145" />
            </Array>
          </mxGeometry>
        </mxCell>
        <mxCell id="vefGU2Eb_igaSBjP2mFE-48" value="" style="edgeStyle=entityRelationEdgeStyle;fontSize=12;html=1;endArrow=ERoneToMany;rounded=0;startSize=8;endSize=8;curved=0;exitX=1;exitY=0.5;exitDx=0;exitDy=0;entryX=0;entryY=0.25;entryDx=0;entryDy=0;" parent="1" source="vefGU2Eb_igaSBjP2mFE-52" target="vefGU2Eb_igaSBjP2mFE-44" edge="1">
          <mxGeometry width="100" height="100" relative="1" as="geometry">
            <mxPoint x="220" y="120" as="sourcePoint" />
            <mxPoint x="530" y="-40" as="targetPoint" />
            <Array as="points">
              <mxPoint x="500" y="40" />
              <mxPoint x="420" y="10" />
              <mxPoint x="450" y="100" />
              <mxPoint x="510" y="-30" />
              <mxPoint x="490" y="40" />
            </Array>
          </mxGeometry>
        </mxCell>
        <mxCell id="vefGU2Eb_igaSBjP2mFE-49" value="" style="edgeStyle=entityRelationEdgeStyle;fontSize=12;html=1;endArrow=ERmany;rounded=0;strokeColor=default;align=center;verticalAlign=middle;fontFamily=Helvetica;fontColor=default;labelBackgroundColor=default;startSize=8;endSize=8;curved=0;entryX=0;entryY=0.5;entryDx=0;entryDy=0;" parent="1" source="vefGU2Eb_igaSBjP2mFE-52" target="vefGU2Eb_igaSBjP2mFE-45" edge="1">
          <mxGeometry width="100" height="100" relative="1" as="geometry">
            <mxPoint x="220" y="120" as="sourcePoint" />
            <mxPoint x="320" y="20" as="targetPoint" />
          </mxGeometry>
        </mxCell>
        <mxCell id="vefGU2Eb_igaSBjP2mFE-50" value="&lt;font face=&quot;Courier New&quot;&gt;Book Reviews&lt;/font&gt;" style="rounded=0;whiteSpace=wrap;html=1;container=0;" parent="1" vertex="1">
          <mxGeometry x="-150" y="-130" width="120" height="60" as="geometry" />
        </mxCell>
        <mxCell id="vefGU2Eb_igaSBjP2mFE-51" value="&lt;b&gt;&lt;font face=&quot;Courier New&quot;&gt;Library User&lt;/font&gt;&lt;/b&gt;" style="rounded=0;whiteSpace=wrap;html=1;container=0;" parent="1" vertex="1">
          <mxGeometry x="-60" y="210" width="120" height="60" as="geometry" />
        </mxCell>
        <mxCell id="vefGU2Eb_igaSBjP2mFE-52" value="&lt;font face=&quot;Courier New&quot;&gt;Library Admin&lt;/font&gt;" style="rounded=0;whiteSpace=wrap;html=1;container=0;" parent="1" vertex="1">
          <mxGeometry x="190" y="-50" width="120" height="60" as="geometry" />
        </mxCell>
        <mxCell id="vefGU2Eb_igaSBjP2mFE-53" value="" style="edgeStyle=entityRelationEdgeStyle;fontSize=12;html=1;endArrow=ERoneToMany;rounded=1;startSize=8;endSize=8;curved=0;entryX=0.558;entryY=-0.05;entryDx=0;entryDy=0;exitX=0.5;exitY=1;exitDx=0;exitDy=0;entryPerimeter=0;strokeColor=none;" parent="1" source="vefGU2Eb_igaSBjP2mFE-52" target="vefGU2Eb_igaSBjP2mFE-51" edge="1">
          <mxGeometry width="100" height="100" relative="1" as="geometry">
            <mxPoint x="240" y="40" as="sourcePoint" />
            <mxPoint x="450" y="135" as="targetPoint" />
            <Array as="points">
              <mxPoint x="430" y="155" />
              <mxPoint x="350" y="125" />
              <mxPoint x="380" y="215" />
              <mxPoint x="440" y="85" />
              <mxPoint x="420" y="155" />
            </Array>
          </mxGeometry>
        </mxCell>
        <mxCell id="vefGU2Eb_igaSBjP2mFE-54" value="" style="edgeStyle=entityRelationEdgeStyle;fontSize=12;html=1;endArrow=ERoneToMany;rounded=0;startSize=8;endSize=8;curved=0;entryX=1;entryY=0.25;entryDx=0;entryDy=0;exitX=0.433;exitY=1;exitDx=0;exitDy=0;exitPerimeter=0;" parent="1" source="vefGU2Eb_igaSBjP2mFE-52" target="vefGU2Eb_igaSBjP2mFE-51" edge="1">
          <mxGeometry width="100" height="100" relative="1" as="geometry">
            <mxPoint x="230" y="30" as="sourcePoint" />
            <mxPoint x="370" y="55" as="targetPoint" />
            <Array as="points">
              <mxPoint x="350" y="75" />
              <mxPoint x="270" y="45" />
              <mxPoint x="300" y="135" />
              <mxPoint x="360" y="5" />
              <mxPoint x="340" y="75" />
            </Array>
          </mxGeometry>
        </mxCell>
        <mxCell id="vefGU2Eb_igaSBjP2mFE-55" value="" style="edgeStyle=entityRelationEdgeStyle;fontSize=12;html=1;endArrow=ERmany;rounded=0;strokeColor=default;align=center;verticalAlign=middle;fontFamily=Helvetica;fontColor=default;labelBackgroundColor=default;startSize=8;endSize=8;curved=0;exitX=0.75;exitY=0;exitDx=0;exitDy=0;" parent="1" source="vefGU2Eb_igaSBjP2mFE-51" target="vefGU2Eb_igaSBjP2mFE-50" edge="1">
          <mxGeometry width="100" height="100" relative="1" as="geometry">
            <mxPoint x="130" y="160" as="sourcePoint" />
            <mxPoint x="150" y="-50" as="targetPoint" />
            <Array as="points">
              <mxPoint x="120" y="160" />
            </Array>
          </mxGeometry>
        </mxCell>
        <mxCell id="vefGU2Eb_igaSBjP2mFE-56" value="" style="edgeStyle=entityRelationEdgeStyle;fontSize=12;html=1;endArrow=ERoneToMany;rounded=0;strokeColor=default;align=center;verticalAlign=middle;fontFamily=Helvetica;fontColor=default;labelBackgroundColor=default;startSize=8;endSize=8;curved=0;exitX=0;exitY=0.5;exitDx=0;exitDy=0;" parent="1" source="vefGU2Eb_igaSBjP2mFE-52" target="vefGU2Eb_igaSBjP2mFE-50" edge="1">
          <mxGeometry width="100" height="100" relative="1" as="geometry">
            <mxPoint x="210" y="120" as="sourcePoint" />
            <mxPoint x="310" y="20" as="targetPoint" />
          </mxGeometry>
        </mxCell>
        <mxCell id="vefGU2Eb_igaSBjP2mFE-57" value="Writes/Reads" style="shape=rhombus;perimeter=rhombusPerimeter;whiteSpace=wrap;html=1;align=center;fontFamily=Helvetica;fontSize=12;fontColor=default;labelBackgroundColor=default;container=0;" parent="1" vertex="1">
          <mxGeometry x="-58" y="40" width="120" height="60" as="geometry" />
        </mxCell>
        <mxCell id="vefGU2Eb_igaSBjP2mFE-58" value="Manages" style="shape=rhombus;perimeter=rhombusPerimeter;whiteSpace=wrap;html=1;align=center;fontFamily=Helvetica;fontSize=12;fontColor=default;labelBackgroundColor=default;container=0;" parent="1" vertex="1">
          <mxGeometry x="27" y="-90" width="120" height="60" as="geometry" />
        </mxCell>
        <mxCell id="vefGU2Eb_igaSBjP2mFE-59" value="Attends" style="shape=rhombus;perimeter=rhombusPerimeter;whiteSpace=wrap;html=1;align=center;fontFamily=Helvetica;fontSize=12;fontColor=default;labelBackgroundColor=default;container=0;" parent="1" vertex="1">
          <mxGeometry x="210" y="160" width="120" height="60" as="geometry" />
        </mxCell>
        <mxCell id="vefGU2Eb_igaSBjP2mFE-60" value="Manages" style="shape=rhombus;perimeter=rhombusPerimeter;whiteSpace=wrap;html=1;align=center;fontFamily=Helvetica;fontSize=12;fontColor=default;labelBackgroundColor=default;container=0;" parent="1" vertex="1">
          <mxGeometry x="330" y="30" width="120" height="60" as="geometry" />
        </mxCell>
        <mxCell id="vefGU2Eb_igaSBjP2mFE-61" value="Manages" style="shape=rhombus;perimeter=rhombusPerimeter;whiteSpace=wrap;html=1;align=center;fontFamily=Helvetica;fontSize=12;fontColor=default;labelBackgroundColor=default;container=0;" parent="1" vertex="1">
          <mxGeometry x="92" y="78" width="120" height="60" as="geometry" />
        </mxCell>
        <mxCell id="vefGU2Eb_igaSBjP2mFE-62" value="Manages" style="shape=rhombus;perimeter=rhombusPerimeter;whiteSpace=wrap;html=1;align=center;fontFamily=Helvetica;fontSize=12;fontColor=default;labelBackgroundColor=default;container=0;" parent="1" vertex="1">
          <mxGeometry x="360" y="-110" width="120" height="60" as="geometry" />
        </mxCell>
        <mxCell id="FZLOpyLxCf-CLv6O1kn6-9" value="call_no" style="ellipse;whiteSpace=wrap;html=1;" vertex="1" parent="1">
          <mxGeometry x="557" y="-80" width="60" height="40" as="geometry" />
        </mxCell>
        <mxCell id="FZLOpyLxCf-CLv6O1kn6-15" value="" style="endArrow=none;html=1;rounded=0;" edge="1" parent="1" source="vefGU2Eb_igaSBjP2mFE-45" target="FZLOpyLxCf-CLv6O1kn6-9">
          <mxGeometry width="50" height="50" relative="1" as="geometry">
            <mxPoint x="657" y="-120" as="sourcePoint" />
            <mxPoint x="690" y="-120" as="targetPoint" />
          </mxGeometry>
        </mxCell>
        <mxCell id="FZLOpyLxCf-CLv6O1kn6-38" value="id_number" style="ellipse;whiteSpace=wrap;html=1;" vertex="1" parent="1">
          <mxGeometry x="500" y="30" width="60" height="40" as="geometry" />
        </mxCell>
        <mxCell id="FZLOpyLxCf-CLv6O1kn6-39" value="fname" style="ellipse;whiteSpace=wrap;html=1;" vertex="1" parent="1">
          <mxGeometry x="587" y="50" width="60" height="40" as="geometry" />
        </mxCell>
        <mxCell id="FZLOpyLxCf-CLv6O1kn6-41" value="checkout" style="ellipse;whiteSpace=wrap;html=1;" vertex="1" parent="1">
          <mxGeometry x="497" y="230" width="60" height="40" as="geometry" />
        </mxCell>
        <mxCell id="FZLOpyLxCf-CLv6O1kn6-42" value="checkin" style="ellipse;whiteSpace=wrap;html=1;" vertex="1" parent="1">
          <mxGeometry x="570" y="230" width="60" height="40" as="geometry" />
        </mxCell>
        <mxCell id="FZLOpyLxCf-CLv6O1kn6-96" value="year_level" style="ellipse;whiteSpace=wrap;html=1;" vertex="1" parent="1">
          <mxGeometry x="420" y="230" width="60" height="40" as="geometry" />
        </mxCell>
        <mxCell id="FZLOpyLxCf-CLv6O1kn6-97" value="" style="endArrow=none;html=1;rounded=0;" edge="1" parent="1" source="vefGU2Eb_igaSBjP2mFE-44" target="FZLOpyLxCf-CLv6O1kn6-38">
          <mxGeometry width="50" height="50" relative="1" as="geometry">
            <mxPoint x="520" y="140" as="sourcePoint" />
            <mxPoint x="570" y="90" as="targetPoint" />
          </mxGeometry>
        </mxCell>
        <mxCell id="FZLOpyLxCf-CLv6O1kn6-98" value="" style="endArrow=none;html=1;rounded=0;" edge="1" parent="1" source="vefGU2Eb_igaSBjP2mFE-44" target="FZLOpyLxCf-CLv6O1kn6-39">
          <mxGeometry width="50" height="50" relative="1" as="geometry">
            <mxPoint x="540" y="130" as="sourcePoint" />
            <mxPoint x="540" y="80" as="targetPoint" />
          </mxGeometry>
        </mxCell>
        <mxCell id="FZLOpyLxCf-CLv6O1kn6-99" value="" style="endArrow=none;html=1;rounded=0;" edge="1" parent="1" source="vefGU2Eb_igaSBjP2mFE-44" target="FZLOpyLxCf-CLv6O1kn6-40">
          <mxGeometry width="50" height="50" relative="1" as="geometry">
            <mxPoint x="570" y="140" as="sourcePoint" />
            <mxPoint x="609" y="96" as="targetPoint" />
          </mxGeometry>
        </mxCell>
        <mxCell id="FZLOpyLxCf-CLv6O1kn6-100" value="" style="endArrow=none;html=1;rounded=0;entryX=0;entryY=0;entryDx=0;entryDy=0;" edge="1" parent="1" source="vefGU2Eb_igaSBjP2mFE-44" target="FZLOpyLxCf-CLv6O1kn6-43">
          <mxGeometry width="50" height="50" relative="1" as="geometry">
            <mxPoint x="600" y="148" as="sourcePoint" />
            <mxPoint x="658" y="136" as="targetPoint" />
          </mxGeometry>
        </mxCell>
        <mxCell id="FZLOpyLxCf-CLv6O1kn6-101" value="" style="endArrow=none;html=1;rounded=0;" edge="1" parent="1" source="vefGU2Eb_igaSBjP2mFE-44" target="FZLOpyLxCf-CLv6O1kn6-42">
          <mxGeometry width="50" height="50" relative="1" as="geometry">
            <mxPoint x="600" y="178" as="sourcePoint" />
            <mxPoint x="659" y="196" as="targetPoint" />
          </mxGeometry>
        </mxCell>
        <mxCell id="FZLOpyLxCf-CLv6O1kn6-102" value="" style="endArrow=none;html=1;rounded=0;" edge="1" parent="1" source="vefGU2Eb_igaSBjP2mFE-44" target="FZLOpyLxCf-CLv6O1kn6-41">
          <mxGeometry width="50" height="50" relative="1" as="geometry">
            <mxPoint x="561" y="190" as="sourcePoint" />
            <mxPoint x="597" y="242" as="targetPoint" />
          </mxGeometry>
        </mxCell>
        <mxCell id="FZLOpyLxCf-CLv6O1kn6-103" value="" style="endArrow=none;html=1;rounded=0;entryX=1;entryY=0;entryDx=0;entryDy=0;" edge="1" parent="1" source="vefGU2Eb_igaSBjP2mFE-44" target="FZLOpyLxCf-CLv6O1kn6-96">
          <mxGeometry width="50" height="50" relative="1" as="geometry">
            <mxPoint x="539" y="190" as="sourcePoint" />
            <mxPoint x="538" y="240" as="targetPoint" />
          </mxGeometry>
        </mxCell>
        <mxCell id="FZLOpyLxCf-CLv6O1kn6-104" value="lname" style="ellipse;whiteSpace=wrap;html=1;" vertex="1" parent="1">
          <mxGeometry x="-58" y="310" width="60" height="40" as="geometry" />
        </mxCell>
        <mxCell id="FZLOpyLxCf-CLv6O1kn6-105" value="fname" style="ellipse;whiteSpace=wrap;html=1;" vertex="1" parent="1">
          <mxGeometry x="-140" y="280" width="60" height="40" as="geometry" />
        </mxCell>
        <mxCell id="FZLOpyLxCf-CLv6O1kn6-106" value="course" style="ellipse;whiteSpace=wrap;html=1;" vertex="1" parent="1">
          <mxGeometry x="27" y="310" width="60" height="40" as="geometry" />
        </mxCell>
        <mxCell id="FZLOpyLxCf-CLv6O1kn6-107" value="id_number" style="ellipse;whiteSpace=wrap;html=1;" vertex="1" parent="1">
          <mxGeometry x="-150" y="210" width="60" height="40" as="geometry" />
        </mxCell>
        <mxCell id="FZLOpyLxCf-CLv6O1kn6-108" value="email" style="ellipse;whiteSpace=wrap;html=1;" vertex="1" parent="1">
          <mxGeometry x="110" y="280" width="60" height="40" as="geometry" />
        </mxCell>
        <mxCell id="FZLOpyLxCf-CLv6O1kn6-109" value="year_level" style="ellipse;whiteSpace=wrap;html=1;" vertex="1" parent="1">
          <mxGeometry x="-150" y="140" width="60" height="40" as="geometry" />
        </mxCell>
        <mxCell id="FZLOpyLxCf-CLv6O1kn6-110" value="" style="endArrow=none;html=1;rounded=0;" edge="1" parent="1" source="FZLOpyLxCf-CLv6O1kn6-109" target="vefGU2Eb_igaSBjP2mFE-51">
          <mxGeometry width="50" height="50" relative="1" as="geometry">
            <mxPoint x="20" y="140" as="sourcePoint" />
            <mxPoint x="70" y="90" as="targetPoint" />
          </mxGeometry>
        </mxCell>
        <mxCell id="FZLOpyLxCf-CLv6O1kn6-111" value="" style="endArrow=none;html=1;rounded=0;" edge="1" parent="1" source="FZLOpyLxCf-CLv6O1kn6-107" target="vefGU2Eb_igaSBjP2mFE-51">
          <mxGeometry width="50" height="50" relative="1" as="geometry">
            <mxPoint x="-89" y="184" as="sourcePoint" />
            <mxPoint x="-35" y="220" as="targetPoint" />
          </mxGeometry>
        </mxCell>
        <mxCell id="FZLOpyLxCf-CLv6O1kn6-112" value="" style="endArrow=none;html=1;rounded=0;" edge="1" parent="1" source="FZLOpyLxCf-CLv6O1kn6-105" target="vefGU2Eb_igaSBjP2mFE-51">
          <mxGeometry width="50" height="50" relative="1" as="geometry">
            <mxPoint x="-80" y="242" as="sourcePoint" />
            <mxPoint x="-50" y="245" as="targetPoint" />
          </mxGeometry>
        </mxCell>
        <mxCell id="FZLOpyLxCf-CLv6O1kn6-113" value="" style="endArrow=none;html=1;rounded=0;" edge="1" parent="1" source="FZLOpyLxCf-CLv6O1kn6-104" target="vefGU2Eb_igaSBjP2mFE-51">
          <mxGeometry width="50" height="50" relative="1" as="geometry">
            <mxPoint x="-77" y="297" as="sourcePoint" />
            <mxPoint x="-45" y="280" as="targetPoint" />
          </mxGeometry>
        </mxCell>
        <mxCell id="FZLOpyLxCf-CLv6O1kn6-114" value="" style="endArrow=none;html=1;rounded=0;" edge="1" parent="1" source="FZLOpyLxCf-CLv6O1kn6-106" target="vefGU2Eb_igaSBjP2mFE-51">
          <mxGeometry width="50" height="50" relative="1" as="geometry">
            <mxPoint x="-12" y="320" as="sourcePoint" />
            <mxPoint x="1" y="280" as="targetPoint" />
          </mxGeometry>
        </mxCell>
        <mxCell id="FZLOpyLxCf-CLv6O1kn6-115" value="" style="endArrow=none;html=1;rounded=0;" edge="1" parent="1" source="FZLOpyLxCf-CLv6O1kn6-108" target="vefGU2Eb_igaSBjP2mFE-51">
          <mxGeometry width="50" height="50" relative="1" as="geometry">
            <mxPoint x="55" y="322" as="sourcePoint" />
            <mxPoint x="29" y="280" as="targetPoint" />
          </mxGeometry>
        </mxCell>
        <mxCell id="FZLOpyLxCf-CLv6O1kn6-116" value="title" style="ellipse;whiteSpace=wrap;html=1;" vertex="1" parent="1">
          <mxGeometry x="-150" y="-220" width="60" height="40" as="geometry" />
        </mxCell>
        <mxCell id="FZLOpyLxCf-CLv6O1kn6-117" value="author" style="ellipse;whiteSpace=wrap;html=1;" vertex="1" parent="1">
          <mxGeometry x="-230" y="-190" width="60" height="40" as="geometry" />
        </mxCell>
        <mxCell id="FZLOpyLxCf-CLv6O1kn6-118" value="feedbacks" style="ellipse;whiteSpace=wrap;html=1;" vertex="1" parent="1">
          <mxGeometry x="-270" y="-120" width="60" height="40" as="geometry" />
        </mxCell>
        <mxCell id="FZLOpyLxCf-CLv6O1kn6-119" value="rating" style="ellipse;whiteSpace=wrap;html=1;" vertex="1" parent="1">
          <mxGeometry x="-240" y="-50" width="60" height="40" as="geometry" />
        </mxCell>
        <mxCell id="FZLOpyLxCf-CLv6O1kn6-120" value="genres" style="ellipse;whiteSpace=wrap;html=1;" vertex="1" parent="1">
          <mxGeometry x="-140" y="-30" width="60" height="40" as="geometry" />
        </mxCell>
        <mxCell id="FZLOpyLxCf-CLv6O1kn6-121" value="evaluationID" style="ellipse;whiteSpace=wrap;html=1;" vertex="1" parent="1">
          <mxGeometry x="-60" y="-210" width="70" height="40" as="geometry" />
        </mxCell>
        <mxCell id="FZLOpyLxCf-CLv6O1kn6-122" value="" style="endArrow=none;html=1;rounded=0;" edge="1" parent="1" source="FZLOpyLxCf-CLv6O1kn6-120" target="vefGU2Eb_igaSBjP2mFE-50">
          <mxGeometry width="50" height="50" relative="1" as="geometry">
            <mxPoint x="-100" y="-30" as="sourcePoint" />
            <mxPoint x="-50" y="-80" as="targetPoint" />
          </mxGeometry>
        </mxCell>
        <mxCell id="FZLOpyLxCf-CLv6O1kn6-123" value="" style="endArrow=none;html=1;rounded=0;" edge="1" parent="1" source="FZLOpyLxCf-CLv6O1kn6-119" target="vefGU2Eb_igaSBjP2mFE-50">
          <mxGeometry width="50" height="50" relative="1" as="geometry">
            <mxPoint x="-96" y="-20" as="sourcePoint" />
            <mxPoint x="-87" y="-60" as="targetPoint" />
          </mxGeometry>
        </mxCell>
        <mxCell id="FZLOpyLxCf-CLv6O1kn6-124" value="" style="endArrow=none;html=1;rounded=0;" edge="1" parent="1" source="FZLOpyLxCf-CLv6O1kn6-118" target="vefGU2Eb_igaSBjP2mFE-50">
          <mxGeometry width="50" height="50" relative="1" as="geometry">
            <mxPoint x="-178" y="-33" as="sourcePoint" />
            <mxPoint x="-131" y="-60" as="targetPoint" />
          </mxGeometry>
        </mxCell>
        <mxCell id="FZLOpyLxCf-CLv6O1kn6-125" value="" style="endArrow=none;html=1;rounded=0;" edge="1" parent="1" source="FZLOpyLxCf-CLv6O1kn6-117" target="vefGU2Eb_igaSBjP2mFE-50">
          <mxGeometry width="50" height="50" relative="1" as="geometry">
            <mxPoint x="-200" y="-90" as="sourcePoint" />
            <mxPoint x="-140" y="-90" as="targetPoint" />
          </mxGeometry>
        </mxCell>
        <mxCell id="FZLOpyLxCf-CLv6O1kn6-126" value="" style="endArrow=none;html=1;rounded=0;" edge="1" parent="1" source="FZLOpyLxCf-CLv6O1kn6-116" target="vefGU2Eb_igaSBjP2mFE-50">
          <mxGeometry width="50" height="50" relative="1" as="geometry">
            <mxPoint x="-168" y="-146" as="sourcePoint" />
            <mxPoint x="-127" y="-120" as="targetPoint" />
          </mxGeometry>
        </mxCell>
        <mxCell id="FZLOpyLxCf-CLv6O1kn6-127" value="" style="endArrow=none;html=1;rounded=0;" edge="1" parent="1" source="vefGU2Eb_igaSBjP2mFE-50" target="FZLOpyLxCf-CLv6O1kn6-121">
          <mxGeometry width="50" height="50" relative="1" as="geometry">
            <mxPoint x="-104" y="-170" as="sourcePoint" />
            <mxPoint x="-89" y="-120" as="targetPoint" />
          </mxGeometry>
        </mxCell>
        <mxCell id="FZLOpyLxCf-CLv6O1kn6-129" value="adminID" style="ellipse;whiteSpace=wrap;html=1;" vertex="1" parent="1">
          <mxGeometry x="122" y="-140" width="60" height="40" as="geometry" />
        </mxCell>
        <mxCell id="FZLOpyLxCf-CLv6O1kn6-130" value="fname" style="ellipse;whiteSpace=wrap;html=1;" vertex="1" parent="1">
          <mxGeometry x="190" y="-170" width="60" height="40" as="geometry" />
        </mxCell>
        <mxCell id="FZLOpyLxCf-CLv6O1kn6-131" value="lname" style="ellipse;whiteSpace=wrap;html=1;" vertex="1" parent="1">
          <mxGeometry x="270" y="-170" width="60" height="40" as="geometry" />
        </mxCell>
        <mxCell id="FZLOpyLxCf-CLv6O1kn6-132" value="email" style="ellipse;whiteSpace=wrap;html=1;" vertex="1" parent="1">
          <mxGeometry x="340" y="-140" width="60" height="40" as="geometry" />
        </mxCell>
        <mxCell id="FZLOpyLxCf-CLv6O1kn6-134" value="" style="endArrow=none;html=1;rounded=0;" edge="1" parent="1" source="FZLOpyLxCf-CLv6O1kn6-129" target="vefGU2Eb_igaSBjP2mFE-52">
          <mxGeometry width="50" height="50" relative="1" as="geometry">
            <mxPoint x="300" y="10" as="sourcePoint" />
            <mxPoint x="350" y="-40" as="targetPoint" />
          </mxGeometry>
        </mxCell>
        <mxCell id="FZLOpyLxCf-CLv6O1kn6-135" value="" style="endArrow=none;html=1;rounded=0;" edge="1" parent="1" source="FZLOpyLxCf-CLv6O1kn6-130" target="vefGU2Eb_igaSBjP2mFE-52">
          <mxGeometry width="50" height="50" relative="1" as="geometry">
            <mxPoint x="178" y="-93" as="sourcePoint" />
            <mxPoint x="231" y="-40" as="targetPoint" />
          </mxGeometry>
        </mxCell>
        <mxCell id="FZLOpyLxCf-CLv6O1kn6-136" value="" style="endArrow=none;html=1;rounded=0;" edge="1" parent="1" source="FZLOpyLxCf-CLv6O1kn6-131" target="vefGU2Eb_igaSBjP2mFE-52">
          <mxGeometry width="50" height="50" relative="1" as="geometry">
            <mxPoint x="235" y="-120" as="sourcePoint" />
            <mxPoint x="253" y="-40" as="targetPoint" />
          </mxGeometry>
        </mxCell>
        <mxCell id="FZLOpyLxCf-CLv6O1kn6-137" value="" style="endArrow=none;html=1;rounded=0;" edge="1" parent="1" source="FZLOpyLxCf-CLv6O1kn6-132" target="vefGU2Eb_igaSBjP2mFE-52">
          <mxGeometry width="50" height="50" relative="1" as="geometry">
            <mxPoint x="303" y="-121" as="sourcePoint" />
            <mxPoint x="272" y="-40" as="targetPoint" />
          </mxGeometry>
        </mxCell>
      </root>
    </mxGraphModel>
  </diagram>
</mxfile>
